<?xml version="1.0" encoding="utf-8"?><svg version="1.1" id="Layer_1" xmlns="http://www.w3.org/2000/svg" xmlns:xlink="http://www.w3.org/1999/xlink" x="0px" y="0px" viewBox="0 0 122.88 110.98" style="enable-background:new 0 0 122.88 110.98" xml:space="preserve"><g><path d="M3.54,84.57c0.94-1.12,1.97-2.02,3.09-2.76c2.25-1.49,4.79-2.28,7.67-2.81c0-25.14,0-50.27,0-75.41 C3.39,4.66,3.46,14.75,3.52,24.12c0.01,1.26,0.02,1.92,0.02,2.23V84.57L3.54,84.57z M17.8,31.15h53.75V17.82H17.8V31.15L17.8,31.15 z M68.25,33.76H17.8v28.41h21.5c-0.45-0.6-0.73-1.31-0.82-2.09c-0.14-1.27,0.24-2.72,1.32-4.07l0,0c0.05-0.07,0.12-0.13,0.19-0.19 L68.25,33.76L68.25,33.76z M47.71,62.17h23.83V43.34L47.68,61.94C47.7,62.02,47.71,62.1,47.71,62.17L47.71,62.17z M74.13,62.17 h22.49v-0.02c0-0.08,0.01-0.15,0.02-0.22L74.13,43.99V62.17L74.13,62.17z M105.38,62.17h14V17.82H74.13v14.3l30.35,23.59l0,0 c0.05,0.04,0.09,0.08,0.14,0.13c1.46,1.57,1.82,3.32,1.47,4.79C105.95,61.2,105.71,61.72,105.38,62.17L105.38,62.17z M119.38,64.78 H99.55l0,28.14c0,0.64-0.52,1.16-1.16,1.16H45.95c-0.64,0-1.16-0.52-1.16-1.16V64.78H17.8v15.68h-0.01c0,0.85-0.61,1.59-1.48,1.72 c-3.04,0.47-5.64,1.13-7.76,2.53c-2.03,1.34-3.7,3.43-5.05,6.81c-0.18,4.28,0.52,7.88,2.41,10.57c1.9,2.71,5.09,4.58,9.92,5.39 h103.54V64.78L119.38,64.78z M96.62,64.78H74.13v26.37l22.49,0V64.78L96.62,64.78z M71.55,64.78H47.72v26.37h23.83V64.78 L71.55,64.78z M74.13,35.05v5.98l25.7,19.98c0.01,0.01,0.02,0.02,0.04,0.03c0.98,0.7,1.92,0.82,2.64,0.56 c0.34-0.12,0.63-0.32,0.86-0.58c0.23-0.26,0.4-0.57,0.48-0.92c0.18-0.76-0.04-1.7-0.85-2.61L74.13,35.05L74.13,35.05z M71.55,40.42 v-6.32L41.52,57.55v0c-0.61,0.8-0.83,1.6-0.75,2.27c0.04,0.39,0.18,0.73,0.4,1c0.21,0.27,0.51,0.48,0.86,0.59 c0.6,0.2,1.38,0.15,2.27-0.27L71.55,40.42L71.55,40.42z M17.8,14.33h102.23c0.79,0,1.5,0.32,2.02,0.84 c0.52,0.52,0.84,1.23,0.84,2.02v90.95c0,0.78-0.32,1.49-0.84,2.01l-0.01,0.01h0c-0.52,0.52-1.23,0.84-2.01,0.84H15.73 c-4.27,0-10.19-3.35-12.66-6.88c-2.42-3.44-3.29-7.86-3.03-13.01V26.35c0-1.79,0-1.98,0-2.22C-0.04,12.67-0.12,0.28,15.85,0.01 C15.92,0,15.98,0,16.05,0c0.97,0,1.75,0.78,1.75,1.75V14.33L17.8,14.33z"/></g></svg>