<?xml version="1.0" encoding="UTF-8"?>
<svg width="700pt" height="700pt" version="1.1" viewBox="0 0 700 700" xmlns="http://www.w3.org/2000/svg" xmlns:xlink="http://www.w3.org/1999/xlink">
 <defs>
  <symbol id="s" overflow="visible">
   <path d="m3.6562-0.21875c-0.1875 0.09375-0.38672 0.16797-0.59375 0.21875-0.19922 0.050781-0.40625 0.078125-0.625 0.078125-0.66797 0-1.1992-0.17969-1.5938-0.54688-0.38672-0.375-0.57812-0.87891-0.57812-1.5156 0-0.64453 0.19141-1.1484 0.57812-1.5156 0.39453-0.375 0.92578-0.5625 1.5938-0.5625 0.21875 0 0.42578 0.027344 0.625 0.078125 0.20703 0.054687 0.40625 0.125 0.59375 0.21875v0.82812c-0.1875-0.125-0.375-0.21875-0.5625-0.28125-0.17969-0.0625-0.37109-0.09375-0.57812-0.09375-0.36719 0-0.65625 0.12109-0.875 0.35938-0.21094 0.23047-0.3125 0.55469-0.3125 0.96875 0 0.40625 0.10156 0.73047 0.3125 0.96875 0.21875 0.23047 0.50781 0.34375 0.875 0.34375 0.20703 0 0.39844-0.023437 0.57812-0.078125 0.1875-0.0625 0.375-0.16016 0.5625-0.29688z"/>
  </symbol>
  <symbol id="c" overflow="visible">
   <path d="m2.6875-2.1719c-0.085938-0.039063-0.16797-0.070313-0.25-0.09375-0.085938-0.019531-0.16797-0.03125-0.25-0.03125-0.25 0-0.44531 0.085937-0.57812 0.25-0.125 0.15625-0.1875 0.38281-0.1875 0.67188v1.375h-0.96875v-2.9844h0.96875v0.48438c0.11328-0.19531 0.25-0.33594 0.40625-0.42188 0.16406-0.09375 0.35938-0.14062 0.57812-0.14062h0.10938c0.039063 0 0.09375 0.007812 0.15625 0.015625z"/>
  </symbol>
  <symbol id="b" overflow="visible">
   <path d="m3.4375-1.5v0.26562h-2.2344c0.03125 0.23047 0.11328 0.40234 0.25 0.51562 0.13281 0.10547 0.32812 0.15625 0.57812 0.15625 0.20703 0 0.41406-0.023438 0.625-0.078125 0.20703-0.0625 0.42188-0.15625 0.64062-0.28125v0.73438c-0.21875 0.09375-0.44531 0.16406-0.67188 0.20312-0.23047 0.039062-0.45312 0.0625-0.67188 0.0625-0.54297 0-0.96484-0.13281-1.2656-0.40625-0.30469-0.28125-0.45312-0.67188-0.45312-1.1719 0-0.47656 0.14453-0.85938 0.4375-1.1406 0.30078-0.28125 0.70703-0.42188 1.2188-0.42188 0.46875 0 0.84375 0.14062 1.125 0.42188s0.42188 0.66406 0.42188 1.1406zm-0.96875-0.32812c0-0.17578-0.058594-0.31641-0.17188-0.42188-0.10547-0.11328-0.24219-0.17188-0.40625-0.17188-0.1875 0-0.33984 0.054687-0.45312 0.15625-0.11719 0.10547-0.1875 0.25-0.21875 0.4375z"/>
  </symbol>
  <symbol id="a" overflow="visible">
   <path d="m1.7969-1.3438c-0.19922 0-0.35156 0.039062-0.45312 0.10938-0.09375 0.0625-0.14062 0.16406-0.14062 0.29688 0 0.11719 0.035156 0.21094 0.10938 0.28125 0.082031 0.0625 0.19531 0.09375 0.34375 0.09375 0.17578 0 0.32812-0.0625 0.45312-0.1875s0.1875-0.28516 0.1875-0.48438v-0.10938zm1.4688-0.35938v1.7031h-0.96875v-0.4375c-0.125 0.17969-0.27344 0.30859-0.4375 0.39062-0.15625 0.082031-0.35156 0.125-0.57812 0.125-0.3125 0-0.57031-0.085938-0.76562-0.26562-0.1875-0.1875-0.28125-0.42188-0.28125-0.70312 0-0.35156 0.11719-0.61328 0.35938-0.78125 0.23828-0.16406 0.61719-0.25 1.1406-0.25h0.5625v-0.0625c0-0.15625-0.0625-0.26562-0.1875-0.32812-0.11719-0.070312-0.29688-0.10938-0.54688-0.10938-0.21094 0-0.40234 0.023437-0.57812 0.0625-0.17969 0.042969-0.33984 0.10156-0.48438 0.17188v-0.71875c0.19531-0.050781 0.39844-0.085938 0.60938-0.10938 0.20703-0.03125 0.41406-0.046875 0.625-0.046875 0.53906 0 0.92969 0.10938 1.1719 0.32812 0.23828 0.21094 0.35938 0.55469 0.35938 1.0312z"/>
  </symbol>
  <symbol id="d" overflow="visible">
   <path d="m1.5-3.8438v0.85938h0.98438v0.67188h-0.98438v1.2812c0 0.13672 0.023438 0.23047 0.078125 0.28125 0.0625 0.042969 0.17578 0.0625 0.34375 0.0625h0.48438v0.6875h-0.8125c-0.38672 0-0.65625-0.078125-0.8125-0.23438s-0.23438-0.42188-0.23438-0.79688v-1.2812h-0.46875v-0.67188h0.46875v-0.85938z"/>
  </symbol>
  <symbol id="k" overflow="visible">
   <path d="m2.5-2.5469v-1.6094h0.95312v4.1562h-0.95312v-0.4375c-0.13672 0.17969-0.28125 0.30859-0.4375 0.39062-0.15625 0.082031-0.33984 0.125-0.54688 0.125-0.375 0-0.68359-0.14453-0.92188-0.4375-0.23047-0.28906-0.34375-0.67188-0.34375-1.1406 0-0.45703 0.11328-0.83203 0.34375-1.125 0.23828-0.28906 0.54688-0.4375 0.92188-0.4375 0.19531 0 0.375 0.042969 0.53125 0.125 0.16406 0.085938 0.31641 0.21484 0.45312 0.39062zm-0.64062 1.9375c0.20703 0 0.36328-0.070313 0.46875-0.21875 0.11328-0.15625 0.17188-0.37891 0.17188-0.67188 0-0.28125-0.058594-0.49219-0.17188-0.64062-0.10547-0.15625-0.26172-0.23438-0.46875-0.23438-0.19922 0-0.35547 0.078125-0.46875 0.23438-0.10547 0.14844-0.15625 0.35938-0.15625 0.64062 0 0.29297 0.050781 0.51562 0.15625 0.67188 0.11328 0.14844 0.26953 0.21875 0.46875 0.21875z"/>
  </symbol>
  <symbol id="j" overflow="visible">
   <path d="m2.0469-0.60938c0.20703 0 0.36328-0.070313 0.46875-0.21875 0.11328-0.15625 0.17188-0.37891 0.17188-0.67188 0-0.28125-0.058594-0.49219-0.17188-0.64062-0.10547-0.15625-0.26172-0.23438-0.46875-0.23438-0.19922 0-0.35547 0.078125-0.46875 0.23438-0.10547 0.14844-0.15625 0.35938-0.15625 0.64062 0 0.29297 0.050781 0.51562 0.15625 0.67188 0.11328 0.14844 0.26953 0.21875 0.46875 0.21875zm-0.625-1.9375c0.125-0.17578 0.26562-0.30469 0.42188-0.39062 0.16406-0.082031 0.35156-0.125 0.5625-0.125 0.36328 0 0.66406 0.14844 0.90625 0.4375 0.23828 0.29297 0.35938 0.66797 0.35938 1.125 0 0.46875-0.12109 0.85156-0.35938 1.1406-0.24219 0.29297-0.54297 0.4375-0.90625 0.4375-0.21094 0-0.39844-0.042969-0.5625-0.125-0.15625-0.082031-0.29688-0.21094-0.42188-0.39062v0.4375h-0.96875v-4.1562h0.96875z"/>
  </symbol>
  <symbol id="i" overflow="visible">
   <path d="m0.0625-2.9844h0.95312l0.8125 2.0156 0.6875-2.0156h0.95312l-1.2656 3.2656c-0.125 0.33203-0.27344 0.56641-0.4375 0.70312-0.16797 0.13281-0.39062 0.20312-0.67188 0.20312h-0.54688v-0.64062h0.29688c0.16406 0 0.28516-0.027344 0.35938-0.078125 0.070313-0.054688 0.12891-0.14062 0.17188-0.26562l0.03125-0.09375z"/>
  </symbol>
  <symbol id="f" overflow="visible">
   <path d="m2.875-2.8906v0.76562c-0.125-0.082031-0.25781-0.14453-0.39062-0.1875-0.13672-0.039062-0.27344-0.0625-0.40625-0.0625-0.27344 0-0.48047 0.078125-0.625 0.23438-0.14844 0.15625-0.21875 0.37109-0.21875 0.64062 0 0.28125 0.070313 0.5 0.21875 0.65625 0.14453 0.15625 0.35156 0.23438 0.625 0.23438 0.14453 0 0.28516-0.019531 0.42188-0.0625 0.13281-0.039063 0.25781-0.10938 0.375-0.20312v0.78125c-0.14844 0.0625-0.29688 0.10156-0.45312 0.125-0.15625 0.03125-0.3125 0.046875-0.46875 0.046875-0.54297 0-0.96484-0.13281-1.2656-0.40625-0.30469-0.28125-0.45312-0.67188-0.45312-1.1719 0-0.48828 0.14844-0.86719 0.45312-1.1406 0.30078-0.28125 0.72266-0.42188 1.2656-0.42188 0.15625 0 0.3125 0.015625 0.46875 0.046875 0.15625 0.023437 0.30469 0.0625 0.45312 0.125z"/>
  </symbol>
  <symbol id="h" overflow="visible">
   <path d="m3.4688-1.8281v1.8281h-0.96875v-1.3906c0-0.25781-0.007812-0.4375-0.015625-0.53125-0.011719-0.10156-0.03125-0.17578-0.0625-0.21875-0.03125-0.0625-0.085937-0.10938-0.15625-0.14062-0.0625-0.039062-0.13281-0.0625-0.20312-0.0625-0.21094 0-0.37109 0.078125-0.48438 0.23438-0.10547 0.15625-0.15625 0.37109-0.15625 0.64062v1.4688h-0.96875v-4.1562h0.96875v1.6094c0.13281-0.17578 0.28516-0.30469 0.45312-0.39062 0.16406-0.082031 0.34375-0.125 0.53125-0.125 0.34375 0 0.60156 0.10938 0.78125 0.32812 0.1875 0.21094 0.28125 0.51172 0.28125 0.90625z"/>
  </symbol>
  <symbol id="g" overflow="visible">
   <path d="m1.4219-0.4375v1.5781h-0.96875v-4.125h0.96875v0.4375c0.125-0.17578 0.26562-0.30469 0.42188-0.39062 0.16406-0.082031 0.35156-0.125 0.5625-0.125 0.36328 0 0.66406 0.14844 0.90625 0.4375 0.23828 0.29297 0.35938 0.66797 0.35938 1.125 0 0.46875-0.12109 0.85156-0.35938 1.1406-0.24219 0.29297-0.54297 0.4375-0.90625 0.4375-0.21094 0-0.39844-0.042969-0.5625-0.125-0.15625-0.082031-0.29688-0.21094-0.42188-0.39062zm0.625-1.9375c-0.19922 0-0.35547 0.078125-0.46875 0.23438-0.10547 0.14844-0.15625 0.35938-0.15625 0.64062 0 0.29297 0.050781 0.51562 0.15625 0.67188 0.11328 0.14844 0.26953 0.21875 0.46875 0.21875 0.20703 0 0.36328-0.070313 0.46875-0.21875 0.11328-0.15625 0.17188-0.37891 0.17188-0.67188 0-0.28125-0.058594-0.49219-0.17188-0.64062-0.10547-0.15625-0.26172-0.23438-0.46875-0.23438z"/>
  </symbol>
  <symbol id="r" overflow="visible">
   <path d="m2.4219-4.1562v0.625h-0.51562c-0.13672 0-0.23438 0.027344-0.29688 0.078125-0.054687 0.054687-0.078125 0.13672-0.078125 0.25v0.21875h0.82812v0.67188h-0.82812v2.3125h-0.95312v-2.3125h-0.46875v-0.67188h0.46875v-0.21875c0-0.32031 0.085937-0.5625 0.26562-0.71875 0.1875-0.15625 0.47266-0.23438 0.85938-0.23438z"/>
  </symbol>
  <symbol id="e" overflow="visible">
   <path d="m1.875-2.375c-0.21094 0-0.37109 0.078125-0.48438 0.23438-0.10547 0.14844-0.15625 0.35938-0.15625 0.64062 0 0.29297 0.050781 0.51562 0.15625 0.67188 0.11328 0.14844 0.27344 0.21875 0.48438 0.21875 0.20703 0 0.36719-0.070313 0.48438-0.21875 0.11328-0.15625 0.17188-0.37891 0.17188-0.67188 0-0.28125-0.058594-0.49219-0.17188-0.64062-0.11719-0.15625-0.27734-0.23438-0.48438-0.23438zm0-0.6875c0.51953 0 0.92188 0.14062 1.2031 0.42188 0.28906 0.27344 0.4375 0.65234 0.4375 1.1406 0 0.5-0.14844 0.89062-0.4375 1.1719-0.28125 0.27344-0.68359 0.40625-1.2031 0.40625-0.51172 0-0.91406-0.13281-1.2031-0.40625-0.29297-0.28125-0.4375-0.67188-0.4375-1.1719 0-0.48828 0.14453-0.86719 0.4375-1.1406 0.28906-0.28125 0.69141-0.42188 1.2031-0.42188z"/>
  </symbol>
  <symbol id="q" overflow="visible">
   <path d="m3.2344-2.5c0.11328-0.17578 0.25391-0.3125 0.42188-0.40625 0.16406-0.10156 0.35156-0.15625 0.5625-0.15625 0.33203 0 0.58594 0.10938 0.76562 0.32812 0.1875 0.21094 0.28125 0.51172 0.28125 0.90625v1.8281h-0.96875v-1.5625c0.007813-0.019531 0.015625-0.039062 0.015625-0.0625v-0.10938c0-0.21875-0.03125-0.375-0.09375-0.46875s-0.16406-0.14062-0.29688-0.14062c-0.1875 0-0.33594 0.078125-0.4375 0.23438-0.09375 0.14844-0.14062 0.35938-0.14062 0.64062v1.4688h-0.96875v-1.5625c0-0.33203-0.03125-0.54688-0.09375-0.64062-0.054688-0.09375-0.15234-0.14062-0.29688-0.14062-0.17969 0-0.32031 0.078125-0.42188 0.23438-0.09375 0.14844-0.14062 0.35938-0.14062 0.64062v1.4688h-0.96875v-2.9844h0.96875v0.4375c0.11328-0.17578 0.24219-0.30469 0.39062-0.39062 0.15625-0.082031 0.32812-0.125 0.51562-0.125 0.20703 0 0.39062 0.054688 0.54688 0.15625 0.15625 0.09375 0.27344 0.23047 0.35938 0.40625z"/>
  </symbol>
  <symbol id="p" overflow="visible">
   <path d="m0.5-3.9844h1.1562l1.4375 2.7344v-2.7344h0.98438v3.9844h-1.1562l-1.4375-2.7344v2.7344h-0.98438z"/>
  </symbol>
  <symbol id="o" overflow="visible">
   <path d="m0.42188-1.1719v-1.8125h0.96875v0.29688 0.60938 0.48438c0 0.24219 0.003906 0.41797 0.015625 0.53125 0.007812 0.10547 0.03125 0.17969 0.0625 0.21875 0.039062 0.0625 0.09375 0.11719 0.15625 0.15625 0.0625 0.03125 0.13281 0.046875 0.21875 0.046875 0.19531 0 0.35156-0.078125 0.46875-0.23438 0.11328-0.15625 0.17188-0.36719 0.17188-0.64062v-1.4688h0.95312v2.9844h-0.95312v-0.4375c-0.14844 0.17969-0.30469 0.30859-0.46875 0.39062-0.15625 0.082031-0.33594 0.125-0.53125 0.125-0.34375 0-0.60938-0.10156-0.79688-0.3125-0.17969-0.21875-0.26562-0.53125-0.26562-0.9375z"/>
  </symbol>
  <symbol id="n" overflow="visible">
   <path d="m3.4688-1.8281v1.8281h-0.96875v-1.3906c0-0.25781-0.007812-0.4375-0.015625-0.53125-0.011719-0.10156-0.03125-0.17578-0.0625-0.21875-0.03125-0.0625-0.085937-0.10938-0.15625-0.14062-0.0625-0.039062-0.13281-0.0625-0.20312-0.0625-0.21094 0-0.37109 0.078125-0.48438 0.23438-0.10547 0.15625-0.15625 0.37109-0.15625 0.64062v1.4688h-0.96875v-2.9844h0.96875v0.4375c0.13281-0.17578 0.28516-0.30469 0.45312-0.39062 0.16406-0.082031 0.34375-0.125 0.53125-0.125 0.34375 0 0.60156 0.10938 0.78125 0.32812 0.1875 0.21094 0.28125 0.51172 0.28125 0.90625z"/>
  </symbol>
  <symbol id="m" overflow="visible">
   <path d="m0.5-3.9844h1.7031c0.50781 0 0.89844 0.11719 1.1719 0.34375 0.26953 0.21875 0.40625 0.53906 0.40625 0.95312 0 0.41797-0.13672 0.74219-0.40625 0.96875-0.27344 0.21875-0.66406 0.32812-1.1719 0.32812h-0.67188v1.3906h-1.0312zm1.0312 0.75v1.1094h0.5625c0.19531 0 0.34766-0.046875 0.45312-0.14062 0.11328-0.10156 0.17188-0.24219 0.17188-0.42188 0-0.17578-0.058594-0.3125-0.17188-0.40625-0.10547-0.09375-0.25781-0.14062-0.45312-0.14062z"/>
  </symbol>
  <symbol id="l" overflow="visible">
   <path d="m0.45312-2.9844h0.96875v2.9375c0 0.39453-0.10156 0.69531-0.29688 0.90625-0.1875 0.21875-0.46484 0.32812-0.82812 0.32812h-0.48438v-0.64062h0.17188c0.17578 0 0.29688-0.042969 0.35938-0.125 0.070312-0.074219 0.10938-0.23047 0.10938-0.46875zm0-1.1719h0.96875v0.78125h-0.96875z"/>
  </symbol>
 </defs>
 <g>
  <path d="m484.19 469.23v-49.215h68.629v-68.215h-110.99v58.465h-68.629v58.965h-53.074v-58.965h-78.992v-46.484l36.988 40.281c1.5 1.6328 3.5508 2.4609 5.6094 2.457 1.8398 0 3.6875-0.66016 5.1445-2l16.125-14.805c3.0898-2.8398 3.2969-7.6602 0.45703-10.754l-73.094-79.605c1.0742-0.31641 2.0977-0.87891 2.9766-1.6875l16.125-14.805c3.0898-2.8398 3.2969-7.6602 0.45703-10.754l-29.609-32.246c-2.8398-3.0898-7.6602-3.2969-10.754-0.45703l-16.125 14.805c-1.582 1.4531-2.4102 3.4258-2.457 5.4219-1.9922-0.12109-4.0273 0.53516-5.6133 1.9883l-12.086 11.098c-5.0703 4.6562-12.301 12.133-16.5 23.227-4.6758 12.352-4.5703 26.523 0.30469 42.125 1.2539 4.0039 5.5312 6.2422 9.5352 4.9922 1.0664-0.33203 2.0625-0.91016 2.8789-1.6602l22.16-20.348c1.2188-1.1172 2.7695-1.6953 4.3633-1.6289 1.5977 0.070313 3.0938 0.77734 4.2109 1.9922l27.898 30.383h-99.98v68.215h78.992v49.215h-62.824v68.215h110.99v-58.965h53.074v58.965h110.99v-58.965h37.504v58.965h110.99v-68.215zm-32.609-107.68h91.488v48.715l-58.879 0.003906h-32.609zm-242.16-46.723c-2.8789-3.1367-6.7773-4.9609-10.977-5.1406-0.22656-0.007813-0.45312-0.015625-0.67969-0.015625-3.9531 0-7.7305 1.4766-10.695 4.2031l-19.625 18.02c-3.2617-12.152-3.1094-23.07 0.46094-32.496 3.4648-9.1562 9.6367-15.512 13.977-19.496l10.512-9.6523 7.4062 8.0586 11.211-10.297-7.4023-8.0625 12.973-11.91 26.715 29.094-12.973 11.91-7.4023-8.0625-11.211 10.297 14.703 16.012-12.973 11.91zm10.609 11.555 12.973-11.91 63.828 69.512-12.973 11.91zm-80.133 83.887v-48.715h91.488v48.715zm107.66 117.43h-91.488v-48.715h91.488zm62.82-58.965h-91.488v-48.719h91.488zm101.24 58.965h-91.488v-48.715h91.488zm-28.664-58.965v-48.719h91.488v48.719zm177.16 58.965h-91.488v-48.715h91.488z"/>
  <path d="m255.79 314.97h52.824c-0.22266 2.3281-0.34766 4.6641-0.34766 6.9961 0 0.73828 0.042969 1.2656 0.070313 1.5586 0.17578 4.3438 3.1875 8.1367 7.3945 9.2773 3.375 0.92188 6.4258 2.1055 8.375 3.2461 0.59375 0.34766 1.0078 0.64844 1.2891 0.87891-0.12891 0.34766-0.34375 0.82031-0.69531 1.4219-1.125 1.9102-3.1836 4.375-5.7734 6.9141-3.1992 3.0938-3.9727 8-1.8789 11.938 3.6875 6.8945 8.3828 13.125 13.934 18.492 3.2109 3.1406 8.168 3.7578 12.023 1.5234 3.2383-1.8477 6.1836-3.1641 8.2969-3.7109 0.67969-0.17578 1.1992-0.25391 1.5664-0.28125 0.14844 0.33594 0.32422 0.82031 0.5 1.5 0.5625 2.1719 0.85937 5.4688 0.8125 9.0859-0.023438 4.4219 2.9219 8.3984 7.1406 9.6641 7.1484 2.1641 16.082 3.1016 21.562 3.2422 0.14063 0.003906 0.30078 0.007812 0.48047 0.007812 0.37891 0 0.83203-0.019531 1.3242-0.097656 4.1367-0.32031 7.7383-3.2266 8.8945-7.293 0.96875-3.5 2.1719-6.5938 3.3008-8.4922 0.375-0.62891 0.69922-1.0508 0.94141-1.3281 0.33984 0.12891 0.8125 0.34375 1.4258 0.70312 1.9414 1.1484 4.4922 3.2852 6.9883 5.8477 3.0938 3.1992 8 3.9727 11.934 1.8789 6.8047-3.6328 13.031-8.3516 18.496-14 3.1406-3.2109 3.7578-8.168 1.5156-12.039-1.793-3.1172-3.1445-6.1406-3.707-8.2969-0.17969-0.69531-0.25781-1.2148-0.28516-1.582 0.34375-0.15625 0.85156-0.35156 1.5742-0.53906 2.1875-0.57031 5.3984-0.85938 9.0195-0.8125 4.4883 0.070313 8.5078-2.8633 9.793-7.1484 2.1094-7.0039 3.1758-14.258 3.1758-21.555 0-0.39062 0-0.91406-0.074218-1.4922-0.097657-2.043-0.82422-3.9609-2.0039-5.5352l55.105-0.003906v-9.75h-0.26172c0.23047-10.809 0.63281-38.582-0.125-79.605l-0.003906-0.24609-0.03125-0.24609c-0.023437-0.19922-0.046875-0.39844-0.066406-0.59375-1.168-10.449-4.918-15.277-70.645-38.941-5.4648-2.3633-19.039-8.4414-25.199-11.992l-0.49609-12.992c9.7383-7.4727 17.457-18.348 21.949-31.215 2.7617-0.28516 5.3672-1.4141 7.5-3.2891 2.707-2.3828 4.3281-5.668 4.5586-9.2539l0.51953-8.1289c5.1055-1.5859 8.8242-6.3516 8.8242-11.973 0-6.6328-5.1797-12.078-11.707-12.508-2.3516-34.418-29.523-61.66-62.582-61.66s-60.227 27.242-62.582 61.66c-6.5273 0.42578-11.707 5.875-11.707 12.508 0 5.4961 3.5625 10.168 8.4922 11.852l0.52734 8.25c0.43359 6.7656 5.8164 12.051 12.391 12.566 4.4922 12.855 12.207 23.719 21.938 31.184l-0.49219 12.992c-6.1602 3.5508-19.734 9.625-25.199 11.992-65.727 23.664-69.48 28.488-70.648 38.941-0.023437 0.19531-0.042969 0.39453-0.066406 0.59375l-0.027344 0.24609-0.003906 0.24609c-0.98828 53.387-0.007813 84.363 0 84.668zm192.17 9.4883c-0.21094 5.5-1.1211 10.957-2.7148 16.258-0.035156 0.125-0.15234 0.20703-0.30859 0.20703-3.1758-0.042969-7.7695 0.125-11.621 1.125-3.7656 0.98047-6.4492 2.6719-7.7539 4.8984-1.3125 2.2344-1.4883 5.3906-0.51172 9.125 1.0078 3.8477 3.1055 7.9375 4.6953 10.707 0.066406 0.11328 0.046875 0.25391-0.0625 0.36328-4.7773 4.9375-10.191 9.043-16.09 12.195-0.11328 0.058593-0.25391 0.039062-0.35547-0.066407-1.8125-1.8594-5.3906-5.2969-9.0234-7.4492-3.3164-1.957-6.3828-2.6484-8.8633-2.0039-2.5117 0.65234-4.8789 2.7383-6.8398 6.0352-2.0234 3.3984-3.4648 7.793-4.3086 10.844-0.03125 0.10938-0.12891 0.1875-0.24219 0.20313h-2.5898c-0.019532 0-0.035156 0-0.054688-0.003907l-5.1875-0.44141c-4.0508-0.46484-8.4141-1.2305-11.992-2.3164-0.12109-0.035157-0.20703-0.15234-0.20703-0.23828 0.03125-2.5898-0.070313-7.5469-1.125-11.617-0.96875-3.7422-2.6406-6.4023-4.8281-7.6914-2.2227-1.3086-5.375-1.4883-9.1172-0.51953-3.75 0.96875-7.8828 3.082-10.719 4.6992-0.11328 0.066407-0.25391 0.046875-0.36328-0.0625-4.8398-4.6836-8.9258-10.102-12.129-16.094-0.058594-0.11328-0.039063-0.25391 0.078124-0.36328 2.2695-2.2227 5.3906-5.582 7.375-8.9492 1.9336-3.2812 2.6445-6.4531 2.0039-8.9297-0.63281-2.4453-2.7305-4.7695-6.0625-6.7266-3.457-2.0273-7.75-3.4258-10.746-4.2461-0.125-0.035157-0.21094-0.14453-0.21094-0.27344l-0.003907-0.25-0.03125-0.27734c-0.023437-0.19922-0.027343-0.45312-0.027343-0.62891 0-6.3125 0.94531-12.648 2.8164-18.828 0.039062-0.11719 0.14453-0.20312 0.26953-0.19141 4.3672 0.039062 8.4688-0.38281 11.555-1.1914 3.7148-0.97656 6.3672-2.668 7.6719-4.8867 1.3047-2.2148 1.4844-5.3477 0.51562-9.0625-0.76953-2.9609-2.3438-6.5312-4.6758-10.609-0.0625-0.10938-0.042969-0.25 0.042969-0.33984 4.6602-4.8203 10.078-8.9023 16.129-12.148 0.11328-0.0625 0.25391-0.039063 0.32422 0.03125 3.0781 3.1484 6.2812 5.7695 9.0195 7.3789 3.4141 2.0117 6.3945 2.707 8.8594 2.0703 2.4492-0.63281 4.793-2.7461 6.7852-6.1133 1.6289-2.75 3.1602-6.5938 4.3203-10.828 0.035156-0.125 0.14453-0.21094 0.27344-0.21094l1.0078-0.015624 0.5 0.007812c6.4023 0.042969 12.59 0.94922 18.395 2.6992 0.12109 0.035156 0.20703 0.15234 0.20312 0.30859-0.039062 3.1875 0.125 7.7891 1.125 11.621 0.96875 3.7109 2.6602 6.3711 4.8906 7.6836 2.2148 1.3047 5.3477 1.4805 9.0586 0.51562 3.0781-0.80078 6.875-2.4414 10.672-4.6133 0.10938-0.0625 0.25-0.046875 0.33984 0.039062 4.8828 4.7188 8.9648 10.117 12.148 16.066 0.0625 0.11328 0.039063 0.25391-0.035156 0.32422-2.2852 2.2422-5.4219 5.6172-7.3828 8.9609-1.9531 3.3398-2.6445 6.4258-1.9961 8.9219 0.63281 2.4336 2.7461 4.7773 6.1016 6.7734 2.7539 1.6367 6.5703 3.168 10.77 4.3242 0.10938 0.03125 0.19141 0.12109 0.21094 0.23047l0.007812 0.17969h0.007813zm27.977-114.67c8.043 3.3438 13.875 6.0898 17.879 8.3906 6.3672 3.6602 6.5078 4.9141 6.7852 7.4062 0.015626 0.14062 0.03125 0.28125 0.046876 0.42188 0.75391 41.035 0.34375 68.672 0.11719 79.188h-24.828zm-98.57-177.16c1.8555-0.21094 3.7383-0.32422 5.6445-0.32422s3.7891 0.11328 5.6445 0.32422v18.391c0 3.1133-2.5312 5.6445-5.6445 5.6445s-5.6445-2.5312-5.6445-5.6445zm-56.105 66.875c-1.5078 0-2.7852-1.2734-2.7852-2.7852 0-1.5078 1.2734-2.7852 2.7852-2.7852h8.7578v-4.875c0.003907-25.562 15.867-47.227 37.602-54.309v16.266c0 8.4883 6.9062 15.395 15.395 15.395s15.395-6.9062 15.395-15.395v-16.266c21.734 7.082 37.598 28.746 37.602 54.309v4.875h8.7578c1.5078 0 2.7852 1.2734 2.7852 2.7852 0 1.5078-1.2734 2.7852-2.7852 2.7852zm28.527 45.367c-8.0312-9.6953-12.91-22.172-14.016-35.617h94.488c-1.1055 13.449-5.9844 25.926-14.016 35.617-3.1719 3.8281-6.707 7.0391-10.488 9.6016-2.6094 1.4844-12.316 6.668-21.359 7.1562-0.45703 0.015625-0.91406 0.042969-1.375 0.042969-10.668-0.015625-20.52-5.7891-20.938-6.0391l-1.3555-0.84766c-3.9609-2.6094-7.6445-5.9297-10.941-9.9141zm54.941 29.754-21.715 25.715-21.715-25.715 0.30859-8.1602c6.0078 2.8906 12.512 4.6016 19.324 4.8945 0.6875 0.035156 1.3789 0.0625 2.0781 0.0625h0.039062c0.61328 0 1.2266-0.023437 1.8359-0.054687 6.8867-0.26563 13.469-1.9805 19.535-4.9023zm-49.418 8.0234 27.703 32.809 27.703-32.809c5.5586 3.0703 14.051 6.9766 19.668 9.4844-10.824 15.465-28.555 24.84-47.695 24.84-18.93 0-36.691-9.3164-47.539-24.625 5.6055-2.4922 14.434-6.5391 20.16-9.6992zm-54.766 22.934c7.1484-2.7891 15.555-5.9336 25.363-9.4883 12.512 18.984 33.918 30.629 56.785 30.629 23.086 0 44.414-11.684 56.91-30.816 10.359 3.75 19.164 7.043 26.59 9.9531v99.328h-24.68c1.1445-1.832 3.0938-4.1328 5.5703-6.5586 3.1562-3.1211 3.8789-8.0273 1.7734-11.898-3.6484-6.8164-8.3438-13.023-13.957-18.449-3.1797-3.0703-8.0859-3.6875-11.938-1.5-3.0391 1.7383-6.0664 3.0664-8.3008 3.6484-0.68359 0.17578-1.1914 0.25391-1.5469 0.28516-0.15234-0.32812-0.33594-0.81641-0.51953-1.5117-0.55859-2.1406-0.85547-5.4375-0.8125-9.0156 0.078125-4.4805-2.8633-8.5078-7.1445-9.7891-6.5742-1.9844-13.559-3.0312-20.766-3.1094-0.12109-0.015624-0.24219-0.03125-0.36328-0.042968l-0.24609-0.023438h-0.24609c-0.46094 0-0.89062 0.015625-1.2773 0.046875-0.085938 0.007813-0.16797 0.015625-0.25 0.023438-4.3281 0.19141-8.1055 3.1953-9.2461 7.3906-0.91797 3.3594-2.125 6.4297-3.3047 8.4258-0.35547 0.60156-0.66406 1.0234-0.90234 1.3164-0.34766-0.14062-0.8125-0.36328-1.4062-0.71094-1.9883-1.168-4.5352-3.2812-7.0156-5.8164-3.1211-3.1562-8.0273-3.8789-11.902-1.7695-6.918 3.7109-13.145 8.4062-18.512 13.953-3.0703 3.1797-3.6875 8.0859-1.5 11.941 1.8555 3.2461 3.1758 6.1719 3.7109 8.2383 0.17578 0.67578 0.25 1.1797 0.28125 1.5391-0.33203 0.15625-0.82422 0.34375-1.5156 0.52734-2.2383 0.58984-5.5117 0.90625-8.9844 0.87109-4.457-0.046875-8.3359 2.7852-9.668 7.0312l-0.015625 0.046875c-0.49609 1.6367-0.92969 3.2891-1.3125 4.9453h-9.6562zm-35.168 20.422 0.046875-0.42188c0.27734-2.4922 0.41797-3.7422 6.7852-7.4062 4.1211-2.3711 10.176-5.207 18.586-8.6836v95.727h-25.535c-0.22656-10.5-0.64062-38.16 0.11719-79.215z"/>
  <path d="m383.02 274.66c-26.086 0-47.309 21.223-47.309 47.309 0 26.086 21.223 47.309 47.309 47.309s47.309-21.223 47.309-47.309c0-26.086-21.223-47.309-47.309-47.309zm0 84.867c-20.711 0-37.559-16.848-37.559-37.559 0-20.711 16.848-37.559 37.559-37.559s37.559 16.848 37.559 37.559c0 20.707-16.848 37.559-37.559 37.559z"/>
  <path d="m383.02 295.25c-14.73 0-26.715 11.984-26.715 26.715 0 14.73 11.984 26.715 26.715 26.715s26.715-11.984 26.715-26.715c0-14.73-11.984-26.715-26.715-26.715zm0 43.676c-9.3555 0-16.965-7.6094-16.965-16.965 0-9.3555 7.6094-16.965 16.965-16.965s16.965 7.6094 16.965 16.965c0 9.3555-7.6133 16.965-16.965 16.965z"/>
  <use x="70" y="576.40625" xlink:href="#s"/>
  <use x="74.011719" y="576.40625" xlink:href="#c"/>
  <use x="76.710938" y="576.40625" xlink:href="#b"/>
  <use x="80.417969" y="576.40625" xlink:href="#a"/>
  <use x="84.109375" y="576.40625" xlink:href="#d"/>
  <use x="86.722656" y="576.40625" xlink:href="#b"/>
  <use x="90.433594" y="576.40625" xlink:href="#k"/>
  <use x="96.25" y="576.40625" xlink:href="#j"/>
  <use x="100.167969" y="576.40625" xlink:href="#i"/>
  <use x="105.636719" y="576.40625" xlink:href="#f"/>
  <use x="108.875" y="576.40625" xlink:href="#h"/>
  <use x="112.769531" y="576.40625" xlink:href="#a"/>
  <use x="116.460938" y="576.40625" xlink:href="#g"/>
  <use x="120.375" y="576.40625" xlink:href="#g"/>
  <use x="124.289062" y="576.40625" xlink:href="#a"/>
  <use x="127.980469" y="576.40625" xlink:href="#c"/>
  <use x="130.675781" y="576.40625" xlink:href="#a"/>
  <use x="70" y="581.875" xlink:href="#r"/>
  <use x="72.378906" y="581.875" xlink:href="#c"/>
  <use x="75.078125" y="581.875" xlink:href="#e"/>
  <use x="78.832031" y="581.875" xlink:href="#q"/>
  <use x="86.4375" y="581.875" xlink:href="#d"/>
  <use x="89.050781" y="581.875" xlink:href="#h"/>
  <use x="92.941406" y="581.875" xlink:href="#b"/>
  <use x="98.554688" y="581.875" xlink:href="#p"/>
  <use x="103.132812" y="581.875" xlink:href="#e"/>
  <use x="106.890625" y="581.875" xlink:href="#o"/>
  <use x="110.785156" y="581.875" xlink:href="#n"/>
  <use x="116.582031" y="581.875" xlink:href="#m"/>
  <use x="120.589844" y="581.875" xlink:href="#c"/>
  <use x="123.285156" y="581.875" xlink:href="#e"/>
  <use x="127.042969" y="581.875" xlink:href="#l"/>
  <use x="128.917969" y="581.875" xlink:href="#b"/>
  <use x="132.625" y="581.875" xlink:href="#f"/>
  <use x="135.867188" y="581.875" xlink:href="#d"/>
 </g>
</svg>
