<?xml version="1.0" encoding="UTF-8"?>
<svg width="700pt" height="700pt" version="1.1" viewBox="0 0 700 700" xmlns="http://www.w3.org/2000/svg" xmlns:xlink="http://www.w3.org/1999/xlink">
 <defs>
  <symbol id="p" overflow="visible">
   <path d="m29.312-1.75c-1.5117 0.78125-3.0898 1.3711-4.7344 1.7656-1.6367 0.40625-3.3398 0.60938-5.1094 0.60938-5.3125 0-9.5273-1.4844-12.641-4.4531-3.1055-2.9688-4.6562-7-4.6562-12.094s1.5508-9.125 4.6562-12.094c3.1133-2.9688 7.3281-4.4531 12.641-4.4531 1.7695 0 3.4727 0.19922 5.1094 0.59375 1.6445 0.39844 3.2227 0.99219 4.7344 1.7812v6.5938c-1.5312-1.0391-3.0391-1.8008-4.5156-2.2812-1.4805-0.48828-3.0391-0.73438-4.6719-0.73438-2.9375 0-5.2461 0.94531-6.9219 2.8281-1.6797 1.875-2.5156 4.4648-2.5156 7.7656 0 3.293 0.83594 5.8828 2.5156 7.7656 1.6758 1.875 3.9844 2.8125 6.9219 2.8125 1.6328 0 3.1914-0.23828 4.6719-0.71875 1.4766-0.48828 2.9844-1.2539 4.5156-2.2969z"/>
  </symbol>
  <symbol id="b" overflow="visible">
   <path d="m21.453-17.406c-0.67969-0.3125-1.3516-0.53906-2.0156-0.6875-0.65625-0.15625-1.3203-0.23438-1.9844-0.23438-1.9688 0-3.4844 0.63281-4.5469 1.8906-1.0547 1.2617-1.5781 3.0703-1.5781 5.4219v11.016h-7.6562v-23.922h7.6562v3.9219c0.97656-1.5625 2.1016-2.7031 3.375-3.4219 1.2812-0.71875 2.8125-1.0781 4.5938-1.0781 0.25 0 0.52344 0.011719 0.82812 0.03125 0.30078 0.023438 0.73438 0.070312 1.2969 0.14062z"/>
  </symbol>
  <symbol id="c" overflow="visible">
   <path d="m27.562-12.031v2.1875h-17.891c0.1875 1.793 0.83203 3.1367 1.9375 4.0312 1.1133 0.89844 2.6719 1.3438 4.6719 1.3438 1.6016 0 3.25-0.23438 4.9375-0.70312 1.6875-0.47656 3.4219-1.2031 5.2031-2.1719v5.8906c-1.8047 0.6875-3.6094 1.2031-5.4219 1.5469-1.8125 0.35156-3.6211 0.53125-5.4219 0.53125-4.3359 0-7.7031-1.0977-10.109-3.2969-2.3984-2.207-3.5938-5.2969-3.5938-9.2656 0-3.9062 1.1758-6.9727 3.5312-9.2031 2.3633-2.2383 5.6094-3.3594 9.7344-3.3594 3.7578 0 6.7695 1.1367 9.0312 3.4062 2.2578 2.2617 3.3906 5.2812 3.3906 9.0625zm-7.8594-2.5312c0-1.457-0.42969-2.6289-1.2812-3.5156-0.84375-0.89453-1.9492-1.3438-3.3125-1.3438-1.4922 0-2.6992 0.41797-3.625 1.25-0.91797 0.83594-1.4922 2.0391-1.7188 3.6094z"/>
  </symbol>
  <symbol id="a" overflow="visible">
   <path d="m14.391-10.766c-1.5938 0-2.793 0.27344-3.5938 0.8125-0.80469 0.54297-1.2031 1.3398-1.2031 2.3906 0 0.96875 0.32031 1.7305 0.96875 2.2812 0.64453 0.54297 1.5469 0.8125 2.7031 0.8125 1.4375 0 2.6445-0.51562 3.625-1.5469 0.98828-1.0312 1.4844-2.3203 1.4844-3.875v-0.875zm11.688-2.8906v13.656h-7.7031v-3.5469c-1.0312 1.4492-2.1875 2.5078-3.4688 3.1719s-2.8398 1-4.6719 1c-2.4805 0-4.4961-0.72266-6.0469-2.1719-1.543-1.4453-2.3125-3.3203-2.3125-5.625 0-2.8125 0.96094-4.8672 2.8906-6.1719 1.9375-1.3125 4.9688-1.9688 9.0938-1.9688h4.5156v-0.60938c0-1.207-0.48047-2.0938-1.4375-2.6562-0.94922-0.5625-2.4375-0.84375-4.4688-0.84375-1.6367 0-3.1562 0.16797-4.5625 0.5-1.4062 0.32422-2.7188 0.8125-3.9375 1.4688v-5.8281c1.6445-0.40625 3.2891-0.70703 4.9375-0.90625 1.6562-0.20703 3.3047-0.3125 4.9531-0.3125 4.3203 0 7.4375 0.85547 9.3438 2.5625 1.9141 1.6992 2.875 4.4609 2.875 8.2812z"/>
  </symbol>
  <symbol id="h" overflow="visible">
   <path d="m12.031-30.719v6.7969h7.875v5.4688h-7.875v10.141c0 1.1172 0.21875 1.8711 0.65625 2.2656 0.4375 0.38672 1.3125 0.57812 2.625 0.57812h3.9375v5.4688h-6.5625c-3.0234 0-5.1641-0.62891-6.4219-1.8906-1.2617-1.2578-1.8906-3.3984-1.8906-6.4219v-10.141h-3.7969v-5.4688h3.7969v-6.7969z"/>
  </symbol>
  <symbol id="g" overflow="visible">
   <path d="m19.953-20.422v-12.812h7.6875v33.234h-7.6875v-3.4531c-1.0547 1.4062-2.2148 2.4375-3.4844 3.0938-1.2734 0.65625-2.7422 0.98438-4.4062 0.98438-2.9492 0-5.3711-1.1719-7.2656-3.5156-1.8867-2.3438-2.8281-5.3594-2.8281-9.0469s0.94141-6.7031 2.8281-9.0469c1.8945-2.3438 4.3164-3.5156 7.2656-3.5156 1.6562 0 3.1172 0.33594 4.3906 1 1.2812 0.65625 2.4453 1.6836 3.5 3.0781zm-5.0469 15.484c1.6445 0 2.8945-0.59766 3.75-1.7969 0.86328-1.1953 1.2969-2.9297 1.2969-5.2031 0-2.2812-0.43359-4.0195-1.2969-5.2188-0.85547-1.1953-2.1055-1.7969-3.75-1.7969-1.625 0-2.8711 0.60156-3.7344 1.7969-0.85547 1.1992-1.2812 2.9375-1.2812 5.2188 0 2.2734 0.42578 4.0078 1.2812 5.2031 0.86328 1.1992 2.1094 1.7969 3.7344 1.7969z"/>
  </symbol>
  <symbol id="f" overflow="visible">
   <path d="m16.406-4.9375c1.6328 0 2.8828-0.59766 3.75-1.7969 0.86328-1.1953 1.2969-2.9297 1.2969-5.2031 0-2.2812-0.43359-4.0195-1.2969-5.2188-0.86719-1.1953-2.1172-1.7969-3.75-1.7969-1.6367 0-2.8906 0.60547-3.7656 1.8125-0.875 1.1992-1.3125 2.9336-1.3125 5.2031 0 2.2617 0.4375 3.9961 1.3125 5.2031 0.875 1.1992 2.1289 1.7969 3.7656 1.7969zm-5.0781-15.484c1.0508-1.3945 2.2188-2.4219 3.5-3.0781 1.2812-0.66406 2.7539-1 4.4219-1 2.9453 0 5.3672 1.1719 7.2656 3.5156 1.8945 2.3438 2.8438 5.3594 2.8438 9.0469s-0.94922 6.7031-2.8438 9.0469c-1.8984 2.3438-4.3203 3.5156-7.2656 3.5156-1.668 0-3.1406-0.33594-4.4219-1s-2.4492-1.6914-3.5-3.0781v3.4531h-7.6562v-33.234h7.6562z"/>
  </symbol>
  <symbol id="e" overflow="visible">
   <path d="m0.53125-23.922h7.6562l6.4219 16.234 5.4688-16.234h7.6562l-10.062 26.188c-1.0117 2.6641-2.1953 4.5234-3.5469 5.5781-1.3438 1.0625-3.1211 1.5938-5.3281 1.5938h-4.4219v-5.0156h2.3906c1.3008 0 2.2422-0.21094 2.8281-0.625 0.59375-0.40625 1.0547-1.1484 1.3906-2.2188l0.20312-0.65625z"/>
  </symbol>
  <symbol id="d" overflow="visible">
   <path d="m4.0156-31.891h8.2188v28.797c0 3.9688-1.0781 6.9375-3.2344 8.9062s-5.4219 2.9531-9.7969 2.9531h-1.6562v-6.2188h1.2812c1.707 0 3-0.48047 3.875-1.4375 0.875-0.96094 1.3125-2.3594 1.3125-4.2031z"/>
  </symbol>
  <symbol id="o" overflow="visible">
   <path d="m3.6719-23.922h7.6562v23.5c0 3.1953-0.77344 5.6406-2.3125 7.3281-1.543 1.6875-3.7734 2.5312-6.6875 2.5312h-3.7812v-5.0156h1.3281c1.4453 0 2.4414-0.32812 2.9844-0.98438 0.53906-0.65625 0.8125-1.9453 0.8125-3.8594zm0-9.3125h7.6562v6.2344h-7.6562z"/>
  </symbol>
  <symbol id="n" overflow="visible">
   <path d="m27.734-14.562v14.562h-7.7031v-11.156c0-2.0625-0.046875-3.4844-0.14062-4.2656-0.085937-0.78125-0.24219-1.3594-0.46875-1.7344-0.30469-0.5-0.71094-0.88281-1.2188-1.1562-0.51172-0.28125-1.0938-0.42188-1.75-0.42188-1.5938 0-2.8516 0.61719-3.7656 1.8438-0.90625 1.2305-1.3594 2.9375-1.3594 5.125v11.766h-7.6562v-23.922h7.6562v3.5c1.1445-1.3945 2.3633-2.4219 3.6562-3.0781 1.3008-0.66406 2.7383-1 4.3125-1 2.7578 0 4.8516 0.85156 6.2812 2.5469 1.4375 1.6875 2.1562 4.1523 2.1562 7.3906z"/>
  </symbol>
  <symbol id="m" overflow="visible">
   <path d="m19.953-4.0625c-1.0547 1.3984-2.2148 2.4219-3.4844 3.0781-1.2734 0.65625-2.7422 0.98438-4.4062 0.98438-2.918 0-5.3281-1.1484-7.2344-3.4531-1.9062-2.3008-2.8594-5.2266-2.8594-8.7812 0-3.582 0.95312-6.5156 2.8594-8.7969s4.3164-3.4219 7.2344-3.4219c1.6641 0 3.1328 0.32812 4.4062 0.98438 1.2695 0.64844 2.4297 1.6797 3.4844 3.0938v-3.5469h7.6875v21.516c0 3.8438-1.2148 6.7734-3.6406 8.7969-2.4297 2.0312-5.9492 3.0469-10.562 3.0469-1.5 0-2.9492-0.11719-4.3438-0.34375-1.3984-0.21875-2.7969-0.57031-4.2031-1.0469v-5.9531c1.3438 0.76953 2.6562 1.3438 3.9375 1.7188s2.5664 0.5625 3.8594 0.5625c2.5078 0 4.3477-0.54688 5.5156-1.6406 1.1641-1.0938 1.75-2.8047 1.75-5.1406zm-5.0469-14.891c-1.5742 0-2.8047 0.58984-3.6875 1.7656-0.88672 1.168-1.3281 2.8203-1.3281 4.9531 0 2.1875 0.42578 3.8516 1.2812 4.9844 0.85156 1.1367 2.0977 1.7031 3.7344 1.7031 1.5938 0 2.832-0.58203 3.7188-1.75 0.88281-1.1758 1.3281-2.8203 1.3281-4.9375 0-2.1328-0.44531-3.7852-1.3281-4.9531-0.88672-1.1758-2.125-1.7656-3.7188-1.7656z"/>
  </symbol>
  <symbol id="l" overflow="visible">
   <path d="m4.0156-31.891h9.1875l11.594 21.875v-21.875h7.7969v31.891h-9.1875l-11.594-21.875v21.875h-7.7969z"/>
  </symbol>
  <symbol id="k" overflow="visible">
   <path d="m3.4219-9.3125v-14.609h7.6875v2.3906c0 1.293-0.011719 2.918-0.03125 4.875-0.011719 1.9609-0.015625 3.2656-0.015625 3.9219 0 1.9297 0.046875 3.3125 0.14062 4.1562 0.10156 0.84375 0.28125 1.4609 0.53125 1.8438 0.3125 0.5 0.71875 0.88672 1.2188 1.1562 0.50781 0.27344 1.0938 0.40625 1.75 0.40625 1.5938 0 2.8438-0.60938 3.75-1.8281 0.91406-1.2266 1.375-2.9297 1.375-5.1094v-11.812h7.6406v23.922h-7.6406v-3.4531c-1.1562 1.3867-2.3828 2.4141-3.6719 3.0781-1.2812 0.66406-2.6992 1-4.25 1-2.7734 0-4.8828-0.84766-6.3281-2.5469-1.4375-1.6953-2.1562-4.1602-2.1562-7.3906z"/>
  </symbol>
  <symbol id="j" overflow="visible">
   <path d="m27.734-14.562v14.562h-7.7031v-11.109c0-2.0938-0.046875-3.5312-0.14062-4.3125-0.085937-0.78125-0.24219-1.3594-0.46875-1.7344-0.30469-0.5-0.71094-0.88281-1.2188-1.1562-0.51172-0.28125-1.0938-0.42188-1.75-0.42188-1.5938 0-2.8516 0.61719-3.7656 1.8438-0.90625 1.2305-1.3594 2.9375-1.3594 5.125v11.766h-7.6562v-33.234h7.6562v12.812c1.1445-1.3945 2.3633-2.4219 3.6562-3.0781 1.3008-0.66406 2.7383-1 4.3125-1 2.7578 0 4.8516 0.85156 6.2812 2.5469 1.4375 1.6875 2.1562 4.1523 2.1562 7.3906z"/>
  </symbol>
  <symbol id="i" overflow="visible">
   <path d="m25.844-19.953c0.96875-1.4766 2.1172-2.6016 3.4531-3.375 1.332-0.78125 2.7969-1.1719 4.3906-1.1719 2.75 0 4.8438 0.85156 6.2812 2.5469 1.4375 1.6875 2.1562 4.1523 2.1562 7.3906v14.562h-7.6875v-12.469c0.007812-0.1875 0.019531-0.37891 0.03125-0.57812 0.007812-0.19531 0.015625-0.48438 0.015625-0.85938 0-1.6953-0.25-2.9258-0.75-3.6875-0.5-0.75781-1.3086-1.1406-2.4219-1.1406-1.4492 0-2.5703 0.60156-3.3594 1.7969-0.79297 1.1992-1.2031 2.9297-1.2344 5.1875v11.75h-7.6875v-12.469c0-2.6562-0.23047-4.3633-0.6875-5.125-0.44922-0.75781-1.2578-1.1406-2.4219-1.1406-1.4688 0-2.6055 0.60547-3.4062 1.8125-0.79297 1.1992-1.1875 2.918-1.1875 5.1562v11.766h-7.7031v-23.922h7.7031v3.5c0.9375-1.3516 2.0156-2.3672 3.2344-3.0469 1.2188-0.6875 2.5547-1.0312 4.0156-1.0312 1.6562 0 3.1133 0.40234 4.375 1.2031 1.2695 0.79297 2.2344 1.9062 2.8906 3.3438z"/>
  </symbol>
 </defs>
 <g>
  <path d="m452.93 480.96c-0.011719-10.441-4.1641-20.449-11.547-27.832-7.3828-7.3789-17.391-11.531-27.828-11.543h-22.625l-17.918-153.26h71.164v76.445h0.003906c-5.4961 1.4336-9.9453 5.4609-11.914 10.789-1.9648 5.3281-1.2031 11.281 2.043 15.941 3.2461 4.6562 8.5664 7.4336 14.246 7.4336 5.6797 0 11-2.7773 14.246-7.4375 3.2461-4.6602 4.0078-10.613 2.0391-15.941-1.9648-5.3242-6.4141-9.3555-11.91-10.785v-76.445h28.66l-39.453-219.12-66.598-0.003906c-1.3633-8.1094-6.5039-15.094-13.844-18.805-7.3438-3.7109-16.012-3.7109-23.355 0-7.3398 3.7109-12.48 10.695-13.844 18.805h-66.598l-39.461 219.12 108.58 0.003906-17.918 153.26h-22.621c-10.438 0.011718-20.445 4.1641-27.828 11.543-7.3828 7.3828-11.535 17.391-11.547 27.832v4.1484h-25.613v8.75h254.87v-8.75h-23.43zm4.2383-99.453v-0.003907c-0.003906 3.4844-2.1016 6.6211-5.3164 7.9531-3.2188 1.332-6.918 0.59375-9.3828-1.8672-2.4609-2.4609-3.1953-6.1641-1.8672-9.3828 1.332-3.2148 4.4688-5.3125 7.9531-5.3164 4.7539 0.003907 8.6094 3.8594 8.6133 8.6133zm-35.465-101.93-22.848-174.09h40.926l31.348 174.09zm-71.688-223.21c3.793 0.011719 7.4766 1.2773 10.477 3.5977 2.9961 2.3242 5.1445 5.5703 6.1055 9.2383h-33.16c0.96094-3.668 3.1055-6.918 6.1055-9.2383 3-2.3203 6.6836-3.5859 10.473-3.5977zm84.805 21.59 3.3828 18.789h-176.38l3.3828-18.789zm-174.57 27.539h39.438l-22.848 174.09h-47.938zm25.41 174.09 22.852-174.09h37.105v60.074h8.75v-60.074h35.652l22.848 174.09h-58.5v-70.262h-8.75v70.262zm50.164 8.75h28.371l17.926 153.26h-64.211zm-79.973 196.79v-4.1484c0.011719-8.1211 3.2422-15.902 8.9805-21.645 5.7422-5.7422 13.527-8.9727 21.645-8.9805h127.07c8.1172 0.007812 15.902 3.2383 21.645 8.9805 5.7383 5.7422 8.9688 13.523 8.9805 21.645v4.1484zm98.516-284.55h-8.75v-8.75h8.75zm0-17.5h-8.75v-8.75h8.75z"/>
  <use x="70" y="691.25" xlink:href="#p"/>
  <use x="102.109375" y="691.25" xlink:href="#b"/>
  <use x="123.683594" y="691.25" xlink:href="#c"/>
  <use x="153.355469" y="691.25" xlink:href="#a"/>
  <use x="182.878906" y="691.25" xlink:href="#h"/>
  <use x="203.792969" y="691.25" xlink:href="#c"/>
  <use x="233.464844" y="691.25" xlink:href="#g"/>
  <use x="280.011719" y="691.25" xlink:href="#f"/>
  <use x="311.328125" y="691.25" xlink:href="#e"/>
  <use x="355.078125" y="691.25" xlink:href="#d"/>
  <use x="371.359375" y="691.25" xlink:href="#a"/>
  <use x="400.878906" y="691.25" xlink:href="#o"/>
  <use x="415.878906" y="691.25" xlink:href="#a"/>
  <use x="445.398437" y="691.25" xlink:href="#n"/>
  <use x="476.546875" y="691.25" xlink:href="#m"/>
  <use x="523.09375" y="691.25" xlink:href="#l"/>
  <use x="559.710938" y="691.25" xlink:href="#k"/>
  <use x="590.855469" y="691.25" xlink:href="#b"/>
  <use x="612.429688" y="691.25" xlink:href="#b"/>
  <use x="634.007812" y="691.25" xlink:href="#a"/>
  <use x="663.53125" y="691.25" xlink:href="#j"/>
  <use x="694.675781" y="691.25" xlink:href="#i"/>
 </g>
</svg>
