<?xml version="1.0" encoding="UTF-8"?>
<svg width="700pt" height="700pt" version="1.1" viewBox="0 0 700 700" xmlns="http://www.w3.org/2000/svg" xmlns:xlink="http://www.w3.org/1999/xlink">
 <defs>
  <symbol id="y" overflow="visible">
   <path d="m18.766-1.125c-0.96875 0.5-1.9805 0.875-3.0312 1.125-1.043 0.25781-2.1367 0.39062-3.2812 0.39062-3.3984 0-6.0898-0.94531-8.0781-2.8438-1.9922-1.9062-2.9844-4.4844-2.9844-7.7344 0-3.2578 0.99219-5.8359 2.9844-7.7344 1.9883-1.9062 4.6797-2.8594 8.0781-2.8594 1.1445 0 2.2383 0.13281 3.2812 0.39062 1.0508 0.25 2.0625 0.625 3.0312 1.125v4.2188c-0.98047-0.65625-1.9453-1.1406-2.8906-1.4531-0.94922-0.3125-1.9492-0.46875-3-0.46875-1.875 0-3.3516 0.60547-4.4219 1.8125-1.0742 1.1992-1.6094 2.8555-1.6094 4.9688 0 2.1055 0.53516 3.7617 1.6094 4.9688 1.0703 1.1992 2.5469 1.7969 4.4219 1.7969 1.0508 0 2.0508-0.14844 3-0.45312 0.94531-0.3125 1.9102-0.80078 2.8906-1.4688z"/>
  </symbol>
  <symbol id="d" overflow="visible">
   <path d="m13.734-11.141c-0.4375-0.19531-0.87109-0.34375-1.2969-0.4375-0.41797-0.10156-0.83984-0.15625-1.2656-0.15625-1.2617 0-2.2305 0.40625-2.9062 1.2188-0.67969 0.80469-1.0156 1.9531-1.0156 3.4531v7.0625h-4.8906v-15.312h4.8906v2.5156c0.625-1 1.3438-1.7266 2.1562-2.1875 0.82031-0.46875 1.8008-0.70312 2.9375-0.70312 0.16406 0 0.34375 0.011719 0.53125 0.03125 0.19531 0.011719 0.47656 0.039062 0.84375 0.078125z"/>
  </symbol>
  <symbol id="b" overflow="visible">
   <path d="m17.641-7.7031v1.4062h-11.453c0.125 1.1484 0.53906 2.0078 1.25 2.5781 0.70703 0.57422 1.7031 0.85938 2.9844 0.85938 1.0312 0 2.082-0.14844 3.1562-0.45312 1.082-0.3125 2.1914-0.77344 3.3281-1.3906v3.7656c-1.1562 0.4375-2.3125 0.76562-3.4688 0.98438-1.1562 0.22656-2.3125 0.34375-3.4688 0.34375-2.7734 0-4.9297-0.70312-6.4688-2.1094-1.5312-1.4062-2.2969-3.3789-2.2969-5.9219 0-2.5 0.75391-4.4609 2.2656-5.8906 1.5078-1.4375 3.582-2.1562 6.2188-2.1562 2.4062 0 4.332 0.73047 5.7812 2.1875 1.4453 1.4492 2.1719 3.3828 2.1719 5.7969zm-5.0312-1.625c0-0.92578-0.27344-1.6719-0.8125-2.2344-0.54297-0.57031-1.25-0.85938-2.125-0.85938-0.94922 0-1.7188 0.26562-2.3125 0.79688s-0.96484 1.2969-1.1094 2.2969z"/>
  </symbol>
  <symbol id="a" overflow="visible">
   <path d="m9.2188-6.8906c-1.0234 0-1.793 0.17188-2.3125 0.51562-0.51172 0.34375-0.76562 0.85547-0.76562 1.5312 0 0.625 0.20703 1.1172 0.625 1.4688 0.41406 0.34375 0.98828 0.51562 1.7188 0.51562 0.92578 0 1.7031-0.32812 2.3281-0.98438 0.63281-0.66406 0.95312-1.4922 0.95312-2.4844v-0.5625zm7.4688-1.8438v8.7344h-4.9219v-2.2656c-0.65625 0.92969-1.3984 1.6055-2.2188 2.0312-0.82422 0.41406-1.8242 0.625-3 0.625-1.5859 0-2.8711-0.45703-3.8594-1.375-0.99219-0.92578-1.4844-2.1289-1.4844-3.6094 0-1.7891 0.61328-3.1016 1.8438-3.9375 1.2383-0.84375 3.1797-1.2656 5.8281-1.2656h2.8906v-0.39062c0-0.76953-0.30859-1.332-0.92188-1.6875-0.61719-0.36328-1.5703-0.54688-2.8594-0.54688-1.0547 0-2.0312 0.10547-2.9375 0.3125-0.89844 0.21094-1.7305 0.52344-2.5 0.9375v-3.7344c1.0391-0.25 2.0859-0.44141 3.1406-0.57812 1.0625-0.13281 2.125-0.20312 3.1875-0.20312 2.7578 0 4.75 0.54688 5.9688 1.6406 1.2266 1.0859 1.8438 2.8555 1.8438 5.3125z"/>
  </symbol>
  <symbol id="c" overflow="visible">
   <path d="m7.7031-19.656v4.3438h5.0469v3.5h-5.0469v6.5c0 0.71094 0.14062 1.1875 0.42188 1.4375s0.83594 0.375 1.6719 0.375h2.5156v3.5h-4.1875c-1.9375 0-3.3125-0.39844-4.125-1.2031-0.80469-0.8125-1.2031-2.1797-1.2031-4.1094v-6.5h-2.4219v-3.5h2.4219v-4.3438z"/>
  </symbol>
  <symbol id="h" overflow="visible">
   <path d="m12.766-13.078v-8.2031h4.9219v21.281h-4.9219v-2.2188c-0.66797 0.90625-1.4062 1.5703-2.2188 1.9844s-1.7578 0.625-2.8281 0.625c-1.8867 0-3.4336-0.75-4.6406-2.25-1.2109-1.5-1.8125-3.4258-1.8125-5.7812 0-2.3633 0.60156-4.2969 1.8125-5.7969 1.207-1.5 2.7539-2.25 4.6406-2.25 1.0625 0 2 0.21484 2.8125 0.64062 0.82031 0.42969 1.5664 1.0859 2.2344 1.9688zm-3.2188 9.9219c1.0391 0 1.8359-0.37891 2.3906-1.1406 0.55078-0.76953 0.82812-1.8828 0.82812-3.3438 0-1.457-0.27734-2.5664-0.82812-3.3281-0.55469-0.76953-1.3516-1.1562-2.3906-1.1562-1.043 0-1.8398 0.38672-2.3906 1.1562-0.55469 0.76172-0.82812 1.8711-0.82812 3.3281 0 1.4609 0.27344 2.5742 0.82812 3.3438 0.55078 0.76172 1.3477 1.1406 2.3906 1.1406z"/>
  </symbol>
  <symbol id="m" overflow="visible">
   <path d="m10.5-3.1562c1.0508 0 1.8516-0.37891 2.4062-1.1406 0.55078-0.76953 0.82812-1.8828 0.82812-3.3438 0-1.457-0.27734-2.5664-0.82812-3.3281-0.55469-0.76953-1.3555-1.1562-2.4062-1.1562-1.0547 0-1.8594 0.38672-2.4219 1.1562-0.55469 0.77344-0.82812 1.8828-0.82812 3.3281 0 1.4492 0.27344 2.5586 0.82812 3.3281 0.5625 0.77344 1.3672 1.1562 2.4219 1.1562zm-3.25-9.9219c0.67578-0.88281 1.4219-1.5391 2.2344-1.9688 0.82031-0.42578 1.7656-0.64062 2.8281-0.64062 1.8945 0 3.4453 0.75 4.6562 2.25 1.207 1.5 1.8125 3.4336 1.8125 5.7969 0 2.3555-0.60547 4.2812-1.8125 5.7812-1.2109 1.5-2.7617 2.25-4.6562 2.25-1.0625 0-2.0078-0.21094-2.8281-0.625-0.8125-0.42578-1.5586-1.0859-2.2344-1.9844v2.2188h-4.8906v-21.281h4.8906z"/>
  </symbol>
  <symbol id="l" overflow="visible">
   <path d="m0.34375-15.312h4.8906l4.125 10.391 3.5-10.391h4.8906l-6.4375 16.766c-0.64844 1.6953-1.4023 2.8828-2.2656 3.5625-0.86719 0.6875-2 1.0312-3.4062 1.0312h-2.8438v-3.2188h1.5312c0.83203 0 1.4375-0.13672 1.8125-0.40625 0.38281-0.26172 0.67969-0.73047 0.89062-1.4062l0.14062-0.42188z"/>
  </symbol>
  <symbol id="k" overflow="visible">
   <path d="m0.82812-20.406h5.0469l3.5312 14.828 3.5-14.828h5.0781l3.5 14.828 3.5156-14.828h5.0156l-4.8125 20.406h-6.0781l-3.7031-15.516-3.6562 15.516h-6.0781z"/>
  </symbol>
  <symbol id="g" overflow="visible">
   <path d="m17.75-9.3281v9.3281h-4.9219v-7.1094c0-1.3438-0.03125-2.2656-0.09375-2.7656s-0.16797-0.86719-0.3125-1.1094c-0.1875-0.3125-0.44922-0.55469-0.78125-0.73438-0.32422-0.17578-0.69531-0.26562-1.1094-0.26562-1.0234 0-1.8242 0.39844-2.4062 1.1875-0.58594 0.78125-0.875 1.8711-0.875 3.2656v7.5312h-4.8906v-21.281h4.8906v8.2031c0.73828-0.88281 1.5195-1.5391 2.3438-1.9688 0.83203-0.42578 1.75-0.64062 2.75-0.64062 1.7695 0 3.1133 0.54688 4.0312 1.6406 0.91406 1.0859 1.375 2.6562 1.375 4.7188z"/>
  </symbol>
  <symbol id="f" overflow="visible">
   <path d="m2.3594-15.312h4.8906v15.312h-4.8906zm0-5.9688h4.8906v4h-4.8906z"/>
  </symbol>
  <symbol id="x" overflow="visible">
   <path d="m2.5781-20.406h5.25v20.406h-5.25z"/>
  </symbol>
  <symbol id="w" overflow="visible">
   <path d="m2.3594-21.281h4.8906v21.281h-4.8906z"/>
  </symbol>
  <symbol id="j" overflow="visible">
   <path d="m16.547-12.766c0.61328-0.94531 1.3477-1.6719 2.2031-2.1719 0.85156-0.5 1.7891-0.75 2.8125-0.75 1.7578 0 3.0977 0.54688 4.0156 1.6406 0.92578 1.0859 1.3906 2.6562 1.3906 4.7188v9.3281h-4.9219v-7.9844-0.35938c0.007813-0.13281 0.015625-0.32031 0.015625-0.5625 0-1.082-0.16406-1.8633-0.48438-2.3438-0.3125-0.48828-0.82422-0.73438-1.5312-0.73438-0.92969 0-1.6484 0.38672-2.1562 1.1562-0.51172 0.76172-0.77344 1.8672-0.78125 3.3125v7.5156h-4.9219v-7.9844c0-1.6953-0.14844-2.7852-0.4375-3.2656-0.29297-0.48828-0.8125-0.73438-1.5625-0.73438-0.9375 0-1.6641 0.38672-2.1719 1.1562-0.51172 0.76172-0.76562 1.8594-0.76562 3.2969v7.5312h-4.9219v-15.312h4.9219v2.2344c0.60156-0.86328 1.2891-1.5156 2.0625-1.9531 0.78125-0.4375 1.6406-0.65625 2.5781-0.65625 1.0625 0 2 0.25781 2.8125 0.76562 0.8125 0.51172 1.4258 1.2305 1.8438 2.1562z"/>
  </symbol>
  <symbol id="v" overflow="visible">
   <path d="m2.5781-20.406h6.6875l4.6562 10.922 4.6719-10.922h6.6875v20.406h-4.9844v-14.938l-4.7031 11.016h-3.3281l-4.7031-11.016v14.938h-4.9844z"/>
  </symbol>
  <symbol id="u" overflow="visible">
   <path d="m2.8594-5.2969h4.9219v5.2969h-4.9219z"/>
  </symbol>
  <symbol id="t" overflow="visible">
   <path d="m10.047-11.359c1.1016 0 1.8945-0.20312 2.375-0.60938 0.47656-0.41406 0.71875-1.0938 0.71875-2.0312 0-0.92578-0.24219-1.5859-0.71875-1.9844-0.48047-0.40625-1.2734-0.60938-2.375-0.60938h-2.2188v5.2344zm-2.2188 3.6406v7.7188h-5.25v-20.406h8.0312c2.6875 0 4.6562 0.45312 5.9062 1.3594 1.2578 0.89844 1.8906 2.3203 1.8906 4.2656 0 1.3555-0.32812 2.4648-0.98438 3.3281-0.64844 0.86719-1.625 1.5-2.9375 1.9062 0.71875 0.16797 1.3594 0.54297 1.9219 1.125 0.57031 0.57422 1.1484 1.4492 1.7344 2.625l2.8594 5.7969h-5.6094l-2.4844-5.0781c-0.5-1.0195-1.0117-1.7109-1.5312-2.0781-0.51172-0.375-1.1953-0.5625-2.0469-0.5625z"/>
  </symbol>
  <symbol id="i" overflow="visible">
   <path d="m12.422-21.281v3.2188h-2.7031c-0.6875 0-1.1719 0.125-1.4531 0.375-0.27344 0.25-0.40625 0.6875-0.40625 1.3125v1.0625h4.1875v3.5h-4.1875v11.812h-4.8906v-11.812h-2.4375v-3.5h2.4375v-1.0625c0-1.6641 0.46094-2.8984 1.3906-3.7031 0.92578-0.80078 2.3672-1.2031 4.3281-1.2031z"/>
  </symbol>
  <symbol id="e" overflow="visible">
   <path d="m9.6406-12.188c-1.0859 0-1.9141 0.39062-2.4844 1.1719-0.57422 0.78125-0.85938 1.9062-0.85938 3.375s0.28516 2.5938 0.85938 3.375c0.57031 0.77344 1.3984 1.1562 2.4844 1.1562 1.0625 0 1.875-0.38281 2.4375-1.1562 0.57031-0.78125 0.85938-1.9062 0.85938-3.375s-0.28906-2.5938-0.85938-3.375c-0.5625-0.78125-1.375-1.1719-2.4375-1.1719zm0-3.5c2.6328 0 4.6914 0.71484 6.1719 2.1406 1.4766 1.418 2.2188 3.3867 2.2188 5.9062 0 2.5117-0.74219 4.4805-2.2188 5.9062-1.4805 1.418-3.5391 2.125-6.1719 2.125-2.6484 0-4.7148-0.70703-6.2031-2.125-1.4922-1.4258-2.2344-3.3945-2.2344-5.9062 0-2.5195 0.74219-4.4883 2.2344-5.9062 1.4883-1.4258 3.5547-2.1406 6.2031-2.1406z"/>
  </symbol>
  <symbol id="s" overflow="visible">
   <path d="m2.5781-20.406h5.875l7.4219 14v-14h4.9844v20.406h-5.875l-7.4219-14v14h-4.9844z"/>
  </symbol>
  <symbol id="r" overflow="visible">
   <path d="m2.1875-5.9688v-9.3438h4.9219v1.5312c0 0.83594-0.007813 1.875-0.015625 3.125-0.011719 1.25-0.015625 2.0859-0.015625 2.5 0 1.2422 0.03125 2.1328 0.09375 2.6719 0.070313 0.54297 0.17969 0.93359 0.32812 1.1719 0.20703 0.32422 0.47266 0.57422 0.79688 0.75 0.32031 0.16797 0.69141 0.25 1.1094 0.25 1.0195 0 1.8203-0.39062 2.4062-1.1719 0.58203-0.78125 0.875-1.8672 0.875-3.2656v-7.5625h4.8906v15.312h-4.8906v-2.2188c-0.74219 0.89844-1.5234 1.5586-2.3438 1.9844-0.82422 0.41406-1.7344 0.625-2.7344 0.625-1.7617 0-3.1055-0.53906-4.0312-1.625-0.92969-1.082-1.3906-2.6602-1.3906-4.7344z"/>
  </symbol>
  <symbol id="q" overflow="visible">
   <path d="m17.75-9.3281v9.3281h-4.9219v-7.1406c0-1.3203-0.03125-2.2344-0.09375-2.7344s-0.16797-0.86719-0.3125-1.1094c-0.1875-0.3125-0.44922-0.55469-0.78125-0.73438-0.32422-0.17578-0.69531-0.26562-1.1094-0.26562-1.0234 0-1.8242 0.39844-2.4062 1.1875-0.58594 0.78125-0.875 1.8711-0.875 3.2656v7.5312h-4.8906v-15.312h4.8906v2.2344c0.73828-0.88281 1.5195-1.5391 2.3438-1.9688 0.83203-0.42578 1.75-0.64062 2.75-0.64062 1.7695 0 3.1133 0.54688 4.0312 1.6406 0.91406 1.0859 1.375 2.6562 1.375 4.7188z"/>
  </symbol>
  <symbol id="p" overflow="visible">
   <path d="m2.5781-20.406h8.7344c2.5938 0 4.582 0.57812 5.9688 1.7344 1.3945 1.1484 2.0938 2.7891 2.0938 4.9219 0 2.1367-0.69922 3.7812-2.0938 4.9375-1.3867 1.1562-3.375 1.7344-5.9688 1.7344h-3.4844v7.0781h-5.25zm5.25 3.8125v5.7031h2.9219c1.0195 0 1.8047-0.25 2.3594-0.75 0.5625-0.5 0.84375-1.2031 0.84375-2.1094 0-0.91406-0.28125-1.6172-0.84375-2.1094-0.55469-0.48828-1.3398-0.73438-2.3594-0.73438z"/>
  </symbol>
  <symbol id="o" overflow="visible">
   <path d="m2.3594-15.312h4.8906v15.031c0 2.0508-0.49609 3.6172-1.4844 4.7031-0.98047 1.082-2.4062 1.625-4.2812 1.625h-2.4219v-3.2188h0.85938c0.92578 0 1.5625-0.21094 1.9062-0.625 0.35156-0.41797 0.53125-1.2461 0.53125-2.4844zm0-5.9688h4.8906v4h-4.8906z"/>
  </symbol>
  <symbol id="n" overflow="visible">
   <path d="m14.719-14.828v3.9844c-0.65625-0.45703-1.3242-0.79688-2-1.0156-0.66797-0.21875-1.3594-0.32812-2.0781-0.32812-1.3672 0-2.4336 0.40234-3.2031 1.2031-0.76172 0.79297-1.1406 1.9062-1.1406 3.3438 0 1.4297 0.37891 2.543 1.1406 3.3438 0.76953 0.79297 1.8359 1.1875 3.2031 1.1875 0.75781 0 1.4844-0.10938 2.1719-0.32812 0.6875-0.22656 1.3203-0.56641 1.9062-1.0156v4c-0.76172 0.28125-1.5391 0.48828-2.3281 0.625-0.78125 0.14453-1.5742 0.21875-2.375 0.21875-2.7617 0-4.9219-0.70703-6.4844-2.125-1.5547-1.4141-2.3281-3.3828-2.3281-5.9062 0-2.5312 0.77344-4.5039 2.3281-5.9219 1.5625-1.4141 3.7227-2.125 6.4844-2.125 0.80078 0 1.5938 0.074219 2.375 0.21875 0.78125 0.13672 1.5547 0.35156 2.3281 0.64062z"/>
  </symbol>
 </defs>
 <g>
  <path d="m289.52 136.08h121.02c1.4844 0 2.9102-0.58984 3.9609-1.6367 1.0508-1.0508 1.6406-2.4766 1.6406-3.9609v-30.992c-0.007813-4.3477-1.7383-8.5156-4.8125-11.59-3.0742-3.0742-7.2422-4.8008-11.59-4.8047h-99.441c-4.3398 0.011719-8.5039 1.7422-11.57 4.8164-3.0703 3.0742-4.7969 7.2383-4.8008 11.578v30.992c0 1.4844 0.58984 2.9102 1.6367 3.9609 1.0508 1.0469 2.4766 1.6367 3.9609 1.6367zm5.6016-36.613v0.003906c0.003906-2.8711 2.332-5.1953 5.2031-5.1992h99.383c2.8672 0.003907 5.1953 2.3281 5.1992 5.1992v25.41h-109.79z"/>
  <path d="m383.35 390.1h127.04c1.8789 10.117 8.707 18.621 18.18 22.641 9.4766 4.0195 20.332 3.0195 28.914-2.6641 8.582-5.6797 13.742-15.285 13.742-25.578 0-10.293-5.1602-19.898-13.742-25.578-8.582-5.6836-19.438-6.6836-28.914-2.6641-9.4727 4.0195-16.301 12.523-18.18 22.641h-117.86l0.98438-1.1914c1.8242-2.2266 1.6602-5.4766-0.375-7.5078l-26.273-26.281v-13.945h81.562c9.3672-0.011719 18.352-3.7383 24.977-10.359 6.625-6.625 10.352-15.609 10.363-24.977-0.0625-5.9336 2.0898-11.676 6.043-16.105 3.9492-4.4297 9.4102-7.2227 15.312-7.8359 1.9453 10.113 8.8242 18.574 18.328 22.539 9.5 3.9688 20.355 2.9102 28.91-2.8203 8.5586-5.7266 13.676-15.359 13.629-25.656-0.046875-10.293-5.25-19.883-13.855-25.535-8.6055-5.6484-19.473-6.6133-28.938-2.5625-9.4648 4.0508-16.27 12.574-18.125 22.703-8.8711 0.68359-17.152 4.707-23.18 11.25-6.0234 6.5469-9.3477 15.133-9.3008 24.027-0.007813 6.4023-2.5547 12.535-7.082 17.062-4.5234 4.5234-10.66 7.0664-17.059 7.0742h-72.129l15.977-10.707c1.5625-1.0352 2.5-2.7852 2.5039-4.6602v-76.438h52.246c5.2266-0.007812 10.238-2.0898 13.934-5.7852 3.6992-3.6953 5.7773-8.707 5.7852-13.934v-129.08c-0.015625-14.047-5.6016-27.508-15.531-37.438-9.9336-9.9336-23.395-15.52-37.438-15.535h-127.59c-14.043 0.015625-27.504 5.6016-37.438 15.535-9.9297 9.9297-15.516 23.391-15.531 37.438v106.44c0.011719 11.23 4.4805 21.996 12.418 29.934 7.9414 7.9414 18.707 12.406 29.934 12.422h29.641v91.801h-53.605c-6.4102 0-12.559-2.5391-17.098-7.0625-4.5352-4.5273-7.0938-10.664-7.1133-17.074 0.011719-9.3984-3.6992-18.418-10.32-25.09-5.9336-5.9336-13.797-9.5508-22.164-10.184-1.8555-10.113-8.6523-18.621-18.105-22.664-9.4531-4.043-20.301-3.0781-28.891 2.5625-8.5938 5.6445-13.785 15.219-13.832 25.496-0.046875 10.281 5.0625 19.898 13.605 25.617 8.5391 5.7227 19.379 6.7812 28.867 2.8203 9.4883-3.957 16.359-12.406 18.305-22.5 5.3789 0.55859 10.414 2.9258 14.27 6.7227 4.5352 4.5703 7.0781 10.75 7.0664 17.191 0.019531 9.3789 3.7617 18.363 10.398 24.988s15.633 10.344 25.012 10.348h53.609v48.855h-115.62c-1.8789-10.133-8.7148-18.645-18.199-22.672-9.4844-4.0234-20.355-3.0273-28.949 2.6602-8.5898 5.6875-13.758 15.305-13.758 25.609 0 10.305 5.168 19.922 13.758 25.609 8.5938 5.6875 19.465 6.6875 28.949 2.6602 9.4844-4.0234 16.32-12.539 18.199-22.668h115.62v49.043h-53.605c-9.3789 0.003907-18.375 3.7227-25.012 10.348s-10.379 15.613-10.398 24.988c-0.011719 6.3984-2.5391 12.539-7.0391 17.086-3.8594 3.8125-8.8984 6.2031-14.293 6.7695-1.957-10.113-8.8555-18.57-18.367-22.527s-20.375-2.8789-28.926 2.8633c-8.5547 5.7422-13.66 15.391-13.598 25.691 0.058594 10.301 5.2812 19.887 13.898 25.527 8.6211 5.6445 19.496 6.5898 28.961 2.5195 9.4648-4.0664 16.262-12.605 18.098-22.742 8.3672-0.63672 16.227-4.25 22.156-10.188 6.5977-6.6562 10.305-15.641 10.32-25.012 0.015625-6.4062 2.5742-12.547 7.1133-17.074 4.5391-4.5234 10.688-7.0625 17.094-7.0586h53.609v9.2734c0 1.3555 0.49219 2.668 1.3828 3.6875l34.328 39.273c1.0586 1.2109 2.5859 1.9102 4.1953 1.9141 1.6016 0 3.1289-0.6875 4.1875-1.8867l46.07-51.957h0.003906c0.066406-0.097656 0.12891-0.19922 0.18359-0.30469h52.824c6.3984 0.003906 12.535 2.5508 17.062 7.0742 4.5273 4.5234 7.0703 10.66 7.0781 17.059-0.027344 8.8867 3.3047 17.449 9.3281 23.98 6.0234 6.5273 14.297 10.535 23.152 11.219 1.8398 10.105 8.6211 18.621 18.062 22.672 9.4414 4.0547 20.285 3.1055 28.879-2.5195 8.5977-5.6289 13.801-15.188 13.859-25.461 0.0625-10.273-5.0273-19.895-13.555-25.625-8.5312-5.7266-19.359-6.8008-28.848-2.8594-9.4883 3.9375-16.371 12.371-18.332 22.457-5.8906-0.60937-11.34-3.3906-15.293-7.8008-3.9492-4.4141-6.1133-10.141-6.0703-16.062-0.011719-9.3672-3.7383-18.348-10.363-24.973s-15.609-10.352-24.977-10.363h-57.043l-26.441-26.438zm157.19-25.094c5.1641-0.007812 10.117 2.0391 13.773 5.6836s5.7188 8.5898 5.7305 13.754c0.011719 5.1641-2.0234 10.121-5.6641 13.785-3.6367 3.6602-8.582 5.7305-13.742 5.75-5.1641 0.023438-10.125-2.0039-13.793-5.6367-3.668-3.6328-5.7461-8.5742-5.7773-13.738v-0.17969c0.023438-5.1523 2.082-10.086 5.7305-13.723 3.6484-3.6406 8.5898-5.6875 13.742-5.6953zm-5.2969-119.62v-0.003906c5.168 0 10.125 2.0508 13.781 5.7031 3.6562 3.6523 5.7148 8.6055 5.7148 13.777 0.003906 5.168-2.0469 10.125-5.6992 13.781s-8.6055 5.7148-13.777 5.7148c-5.168 0.003906-10.125-2.0469-13.781-5.6992s-5.7148-8.6094-5.7148-13.777c0.003906-5.1641 2.0547-10.117 5.707-13.773s8.6016-5.7148 13.77-5.7266zm-370.47 38.977-0.003906-0.003906c-5.168 0.003906-10.129-2.0469-13.785-5.7031-3.6562-3.6523-5.7109-8.6094-5.7109-13.781-0.003906-5.168 2.0508-10.125 5.707-13.781s8.6133-5.7109 13.781-5.7109c5.1719 0.003906 10.129 2.0586 13.785 5.7148 3.6523 3.6562 5.7031 8.6172 5.6992 13.785-0.007812 5.1641-2.0625 10.113-5.7148 13.762-3.6484 3.6523-8.5977 5.707-13.762 5.7148zm-5.2969 119.62-0.003906-0.003907c-5.1562 0.007813-10.105-2.0273-13.766-5.6641-3.6562-3.6367-5.7227-8.5742-5.75-13.73-0.023438-5.1562 2-10.113 5.6211-13.781 3.625-3.6719 8.5547-5.7539 13.711-5.7969 5.1562-0.042968 10.121 1.9609 13.801 5.5703 3.6836 3.6133 5.7852 8.5352 5.8438 13.691 0 0.054687-0.035156 0.10156-0.035156 0.15625s0.039063 0.13281 0.042969 0.20312h0.003906c-0.039062 5.1406-2.1094 10.059-5.7539 13.684-3.6484 3.6211-8.5781 5.6602-13.719 5.668zm5.293 119.62c-5.168 0-10.125-2.0508-13.785-5.7031-3.6562-3.6523-5.7109-8.6094-5.7109-13.777-0.003906-5.1719 2.0469-10.129 5.7031-13.785 3.6523-3.6562 8.6094-5.7109 13.781-5.7109 5.168-0.003906 10.125 2.0508 13.781 5.707 3.6562 3.6523 5.707 8.6094 5.707 13.781-0.003906 5.1641-2.0586 10.113-5.7109 13.766-3.6484 3.6523-8.6016 5.7109-13.766 5.7227zm370.47-38.977h0.003906c5.168-0.003906 10.125 2.0469 13.785 5.6992 3.6562 3.6562 5.7109 8.6094 5.7109 13.781 0.003906 5.168-2.0469 10.125-5.7031 13.781-3.6523 3.6562-8.6094 5.7109-13.781 5.7148-5.168 0-10.125-2.0547-13.781-5.707-3.6562-3.6562-5.707-8.6133-5.707-13.781 0.003906-5.1641 2.0586-10.117 5.7109-13.77 3.6484-3.6523 8.6016-5.7109 13.766-5.7188zm-290.8-300.01v-106.44c0.011718-11.074 4.418-21.695 12.25-29.523 7.8281-7.832 18.445-12.238 29.52-12.25h127.59c11.074 0.011718 21.691 4.418 29.52 12.25 7.832 7.8281 12.238 18.449 12.25 29.523v129.08c-0.007812 4.7031-3.8164 8.5117-8.5195 8.5195h-57.68c-0.078126 0-0.14063-0.042969-0.21875-0.042969-0.078126 0-0.14063 0.039063-0.21875 0.042969h-77.883c-0.078125 0-0.14062-0.042969-0.21875-0.042969s-0.14062 0.039063-0.21875 0.042969h-35.023c-8.2578-0.011719-16.176-3.2969-22.016-9.1367-5.8398-5.8398-9.125-13.758-9.1367-22.02zm139.11 262.44-38.348 43.25-28.762-32.898v-230.43h67.172v73.449l-25.434 17.051h-0.003907c-1.5508 1.0391-2.4805 2.7812-2.4805 4.6484v24.113c0 1.4844 0.58984 2.9102 1.6406 3.9609l24.328 24.332-28.617 34.891c-1.8242 2.2266-1.6641 5.4766 0.37109 7.5117z"/>
  <path d="m410.51 189.98c3.0938 0 5.6016-2.5078 5.6016-5.6016 0-3.0898-2.5078-5.5977-5.6016-5.5977h-120.99c-3.0938 0-5.5977 2.5078-5.5977 5.5977 0 3.0938 2.5039 5.6016 5.5977 5.6016z"/>
  <use x="70" y="644" xlink:href="#y"/>
  <use x="90.550781" y="644" xlink:href="#d"/>
  <use x="104.359375" y="644" xlink:href="#b"/>
  <use x="123.347656" y="644" xlink:href="#a"/>
  <use x="142.242188" y="644" xlink:href="#c"/>
  <use x="155.628906" y="644" xlink:href="#b"/>
  <use x="174.617188" y="644" xlink:href="#h"/>
  <use x="204.410156" y="644" xlink:href="#m"/>
  <use x="224.453125" y="644" xlink:href="#l"/>
  <use x="252.453125" y="644" xlink:href="#k"/>
  <use x="283.335938" y="644" xlink:href="#a"/>
  <use x="302.230469" y="644" xlink:href="#g"/>
  <use x="322.164062" y="644" xlink:href="#f"/>
  <use x="331.761719" y="644" xlink:href="#h"/>
  <use x="361.554688" y="644" xlink:href="#x"/>
  <use x="371.96875" y="644" xlink:href="#w"/>
  <use x="381.570312" y="644" xlink:href="#g"/>
  <use x="401.5" y="644" xlink:href="#a"/>
  <use x="420.398438" y="644" xlink:href="#j"/>
  <use x="459.320312" y="644" xlink:href="#v"/>
  <use x="487.183594" y="644" xlink:href="#u"/>
  <use x="507.570312" y="644" xlink:href="#t"/>
  <use x="529.128906" y="644" xlink:href="#f"/>
  <use x="538.726562" y="644" xlink:href="#i"/>
  <use x="550.90625" y="644" xlink:href="#a"/>
  <use x="569.804687" y="644" xlink:href="#f"/>
  <use x="70" y="672" xlink:href="#i"/>
  <use x="82.183594" y="672" xlink:href="#d"/>
  <use x="95.992188" y="672" xlink:href="#e"/>
  <use x="115.226562" y="672" xlink:href="#j"/>
  <use x="154.152344" y="672" xlink:href="#c"/>
  <use x="167.535156" y="672" xlink:href="#g"/>
  <use x="187.46875" y="672" xlink:href="#b"/>
  <use x="216.207031" y="672" xlink:href="#s"/>
  <use x="239.640625" y="672" xlink:href="#e"/>
  <use x="258.878906" y="672" xlink:href="#r"/>
  <use x="278.8125" y="672" xlink:href="#q"/>
  <use x="308.492188" y="672" xlink:href="#p"/>
  <use x="329.015625" y="672" xlink:href="#d"/>
  <use x="342.820312" y="672" xlink:href="#e"/>
  <use x="362.058594" y="672" xlink:href="#o"/>
  <use x="371.65625" y="672" xlink:href="#b"/>
  <use x="390.648438" y="672" xlink:href="#n"/>
  <use x="407.242188" y="672" xlink:href="#c"/>
 </g>
</svg>
